<?xml version="1.0" encoding="utf-8" ?>
<svg xmlns="http://www.w3.org/2000/svg" xmlns:xlink="http://www.w3.org/1999/xlink" width="19.375" height="19.2578" viewBox="0 0 19.375 19.2578">
	<path d="M19.375 9.6875C19.375 4.33594 15.0391 0 9.6875 0C4.33594 0 0 4.33594 0 9.6875C0 14.5227 3.54258 18.5305 8.17383 19.2578L8.17383 12.4879L5.71289 12.4879L5.71289 9.6875L8.17383 9.6875L8.17383 7.55312C8.17383 5.12539 9.61914 3.78437 11.8328 3.78437C12.893 3.78437 14.0016 3.97344 14.0016 3.97344L14.0016 6.35625L12.7797 6.35625C11.5766 6.35625 11.2012 7.10313 11.2012 7.86914L11.2012 9.6875L13.8879 9.6875L13.4582 12.4879L11.2012 12.4879L11.2012 19.2578C15.8324 18.5305 19.375 14.5227 19.375 9.6875Z" fill-rule="nonzero" transform="matrix(1 0 0 1 0 0)" fill="rgb(102, 102, 102)"/>
</svg>
