<?xml version="1.0" encoding="utf-8" ?>
<svg xmlns="http://www.w3.org/2000/svg" xmlns:xlink="http://www.w3.org/1999/xlink" width="20" height="20" viewBox="0 0 20 20">
	<defs>
		<clipPath id="clipPath8606405089">
			<path d="M0 0L20 0L20 20L0 20L0 0Z" fill-rule="nonzero" transform="matrix(1 0 0 1 -0 -0)"/>
		</clipPath>
	</defs>
	<g clip-path="url(#clipPath8606405089)">
		<path d="M6.63991 5.31413L10.3508 1.60319C10.5339 1.42009 10.6255 1.19907 10.6256 0.940132C10.6258 0.681196 10.5343 0.460099 10.3514 0.276842C10.1685 0.0935839 9.94754 0.00178158 9.6886 0.00143468C9.42967 0.00108739 9.20849 0.092297 9.02506 0.275064L5.31413 3.986L1.60319 0.275064C1.41981 0.0916878 1.19846 0 0.939126 0C0.679793 0 0.458439 0.0916879 0.275064 0.275064C0.0916879 0.458439 0 0.679793 0 0.939126C0 1.19846 0.0916878 1.41981 0.275064 1.60319L3.986 5.31413L0.275064 9.02506C0.0916878 9.20844 0 9.42979 0 9.68913C0 9.94846 0.0916879 10.1698 0.275064 10.3532C0.458439 10.5366 0.679793 10.6283 0.939126 10.6283C1.19846 10.6283 1.41981 10.5366 1.60319 10.3532L5.31413 6.64225L9.02506 10.3532C9.20844 10.5366 9.42979 10.6283 9.68913 10.6283C9.94846 10.6283 10.1698 10.5366 10.3532 10.3532C10.5366 10.1698 10.6283 9.94846 10.6283 9.68913C10.6283 9.42979 10.5366 9.20844 10.3532 9.02506L6.63991 5.31413Z" fill-rule="nonzero" transform="matrix(1 0 0 1 4.68587 4.68587)" fill="rgb(156, 163, 175)"/>
	</g>
</svg>
