<?xml version="1.0" encoding="utf-8" ?>
<svg xmlns="http://www.w3.org/2000/svg" xmlns:xlink="http://www.w3.org/1999/xlink" width="24" height="24" viewBox="0 0 24 24">
	<defs>
		<clipPath id="clipPath8627281285">
			<path d="M0 0L24 0L24 24L0 24L0 0Z" fill-rule="nonzero" transform="matrix(1 0 0 1 0 0)"/>
		</clipPath>
	</defs>
	<g clip-path="url(#clipPath8627281285)">
		<defs>
			<clipPath id="clipPath4489710146">
				<path d="M0 0L24 0L24 24L0 24L0 0Z" fill-rule="nonzero" transform="matrix(1 0 0 1 -0 -0)"/>
			</clipPath>
		</defs>
		<g clip-path="url(#clipPath4489710146)">
			<path d="M-0.75 0.9375C-0.75 0.00551945 0.00551945 -0.75 0.9375 -0.75L7.3125 -0.75C8.24448 -0.75 9 0.00551945 9 0.9375L9 7.3125C9 8.24448 8.24448 9 7.3125 9L0.9375 9C0.00551945 9 -0.75 8.24448 -0.75 7.3125L-0.75 0.9375ZM0.9375 0.75C0.833947 0.75 0.75 0.833947 0.75 0.9375L0.75 7.3125C0.75 7.41605 0.833947 7.5 0.9375 7.5L7.3125 7.5C7.41605 7.5 7.5 7.41605 7.5 7.3125L7.5 0.9375C7.5 0.833947 7.41605 0.75 7.3125 0.75L0.9375 0.75Z" fill-rule="nonzero" transform="matrix(1 0 0 1 2.25 2.25)" fill="rgb(75, 85, 99)"/>
			<path d="M-0.75 0.9375C-0.75 0.00551945 0.00551945 -0.75 0.9375 -0.75L7.3125 -0.75C8.24448 -0.75 9 0.00551945 9 0.9375L9 7.3125C9 8.24448 8.24448 9 7.3125 9L0.9375 9C0.00551945 9 -0.75 8.24448 -0.75 7.3125L-0.75 0.9375ZM0.9375 0.75C0.833947 0.75 0.75 0.833947 0.75 0.9375L0.75 7.3125C0.75 7.41605 0.833947 7.5 0.9375 7.5L7.3125 7.5C7.41605 7.5 7.5 7.41605 7.5 7.3125L7.5 0.9375C7.5 0.833947 7.41605 0.75 7.3125 0.75L0.9375 0.75Z" fill-rule="nonzero" transform="matrix(1 0 0 1 13.5 2.25)" fill="rgb(75, 85, 99)"/>
			<path d="M-0.75 0.9375C-0.75 0.00551945 0.00551945 -0.75 0.9375 -0.75L7.3125 -0.75C8.24448 -0.75 9 0.00551945 9 0.9375L9 7.3125C9 8.24448 8.24448 9 7.3125 9L0.9375 9C0.00551945 9 -0.75 8.24448 -0.75 7.3125L-0.75 0.9375ZM0.9375 0.75C0.833947 0.75 0.75 0.833947 0.75 0.9375L0.75 7.3125C0.75 7.41605 0.833947 7.5 0.9375 7.5L7.3125 7.5C7.41605 7.5 7.5 7.41605 7.5 7.3125L7.5 0.9375C7.5 0.833947 7.41605 0.75 7.3125 0.75L0.9375 0.75Z" fill-rule="nonzero" transform="matrix(1 0 0 1 2.25 13.5)" fill="rgb(75, 85, 99)"/>
			<path d="M-0.75 0.9375C-0.75 0.00551945 0.00551945 -0.75 0.9375 -0.75L7.3125 -0.75C8.24448 -0.75 9 0.00551945 9 0.9375L9 7.3125C9 8.24448 8.24448 9 7.3125 9L0.9375 9C0.00551945 9 -0.75 8.24448 -0.75 7.3125L-0.75 0.9375ZM0.9375 0.75C0.833947 0.75 0.75 0.833947 0.75 0.9375L0.75 7.3125C0.75 7.41605 0.833947 7.5 0.9375 7.5L7.3125 7.5C7.41605 7.5 7.5 7.41605 7.5 7.3125L7.5 0.9375C7.5 0.833947 7.41605 0.75 7.3125 0.75L0.9375 0.75Z" fill-rule="nonzero" transform="matrix(1 0 0 1 13.5 13.5)" fill="rgb(75, 85, 99)"/>
		</g>
	</g>
</svg>
