<?xml version="1.0" encoding="utf-8" ?>
<svg xmlns="http://www.w3.org/2000/svg" xmlns:xlink="http://www.w3.org/1999/xlink" width="28.1706" height="29" viewBox="0 0 28.1706 29">
	<defs>
		<filter id="filter6891742844" filterUnits="userSpaceOnUse" color-interpolation-filters="sRGB">
			<feComponentTransfer in="SourceAlpha" result="componentTransfer0825022491">
				<feFuncR type="linear" slope="0" intercept="0"/>
				<feFuncG type="linear" slope="0" intercept="0"/>
				<feFuncB type="linear" slope="0" intercept="0"/>
				<feFuncA type="linear" slope="10000" intercept="0"/>
			</feComponentTransfer>
			<feComponentTransfer in="componentTransfer0825022491" result="componentTransfer1678775225">
				<feFuncA type="linear" slope="0.2" intercept="0"/>
			</feComponentTransfer>
			<feOffset dx="0" dy="4" in="componentTransfer1678775225" result="offset5072630113"/>
			<feGaussianBlur stdDeviation="2" in="offset5072630113" result="gaussianBlur5780156346"/>
			<feMerge>
				<feMergeNode in="gaussianBlur5780156346"/>
				<feMergeNode in="SourceGraphic"/>
			</feMerge>
		</filter>
	</defs>
	<g filter="url(#filter6891742844)">
		<defs>
			<clipPath id="clipPath3173955762">
				<path d="M0 0L24 0L24 24L0 24L0 0Z" fill-rule="nonzero" transform="matrix(1 0 0 1 2.5 0)"/>
			</clipPath>
		</defs>
		<g clip-path="url(#clipPath3173955762)">
			<defs>
				<clipPath id="clipPath7489820295">
					<path d="M0 0L24 0L24 24L0 24L0 0Z" fill-rule="nonzero" transform="matrix(1 0 0 1 2.5 0)"/>
				</clipPath>
			</defs>
			<g clip-path="url(#clipPath7489820295)">
				<path d="M0.75 -0.75Q1.37132 -0.75 1.81066 -0.31066Q2.25 0.12868 2.25 0.75Q2.25 1.37132 1.81066 1.81066Q1.37132 2.25 0.75 2.25Q0.12868 2.25 -0.31066 1.81066Q-0.75 1.37132 -0.75 0.75Q-0.75 0.12868 -0.31066 -0.31066Q0.12868 -0.75 0.75 -0.75L0.75 -0.75ZM0.75 0.75Q0.75 0.75 0.75 0.75Q0.75 0.75 0.75 0.75L0.75 0.75L0.75 0.75L0.75 0.75Z" fill-rule="nonzero" transform="matrix(1 0 0 1 10 18.75)" fill="rgb(75, 85, 99)"/>
				<path d="M0.75 -0.75Q1.37132 -0.75 1.81066 -0.31066Q2.25 0.12868 2.25 0.75Q2.25 1.37132 1.81066 1.81066Q1.37132 2.25 0.75 2.25Q0.12868 2.25 -0.31066 1.81066Q-0.75 1.37132 -0.75 0.75Q-0.75 0.12868 -0.31066 -0.31066Q0.12868 -0.75 0.75 -0.75L0.75 -0.75ZM0.75 0.75Q0.75 0.75 0.75 0.75Q0.75 0.75 0.75 0.75L0.75 0.75L0.75 0.75L0.75 0.75Z" fill-rule="nonzero" transform="matrix(1 0 0 1 20.5 18.75)" fill="rgb(75, 85, 99)"/>
				<path d="M-0.75 0C-0.75 0.41421 -0.41421 0.75 0 0.75L2.37076 0.75L4.51141 12.8803Q4.52281 12.945 4.54526 13.0066Q4.56771 13.0683 4.60052 13.1251Q4.63333 13.1819 4.67551 13.2321Q4.71769 13.2824 4.76795 13.3246Q4.81821 13.3667 4.87503 13.3995Q4.93186 13.4323 4.99351 13.4548Q5.05516 13.4772 5.11978 13.4886Q5.18439 13.5 5.25 13.5L17.25 13.5C17.6642 13.5 18 13.1642 18 12.75C18 12.3358 17.6642 12 17.25 12L5.87924 12L3.73859 -0.130339Q3.72719 -0.194951 3.70474 -0.256601Q3.68229 -0.318251 3.64948 -0.375068Q3.61667 -0.431884 3.57449 -0.482141Q3.53231 -0.532397 3.48205 -0.574567Q3.43179 -0.616737 3.37497 -0.649539Q3.31814 -0.682341 3.25649 -0.704778Q3.19484 -0.727216 3.13022 -0.738608Q3.06561 -0.75 3 -0.75L0 -0.75C-0.41421 -0.75 -0.75 -0.41421 -0.75 0Z" fill-rule="evenodd" transform="matrix(1 0 0 1 4.75 3.75)" fill="rgb(75, 85, 99)"/>
				<path d="M12.8853 6.75L1.5 6.75C1.08579 6.75 0.75 7.08579 0.75 7.5C0.75 7.91421 1.08579 8.25 1.5 8.25L13.1925 8.25Q13.5944 8.25028 13.9056 7.9953Q14.2169 7.74034 14.2959 7.34578L15.6459 0.595681Q15.7504 0.0734087 15.4126 -0.33848Q15.0747 -0.75037 14.542 -0.75L0 -0.75C-0.41421 -0.75 -0.75 -0.41421 -0.75 0C-0.75 0.41421 -0.41421 0.75 0 0.75L14.0853 0.75L12.8853 6.75Z" fill-rule="evenodd" transform="matrix(1 0 0 1 8.5 6)" fill="rgb(75, 85, 99)"/>
			</g>
		</g>
	</g>
</svg>
