<?xml version="1.0" encoding="utf-8" ?>
<svg xmlns="http://www.w3.org/2000/svg" xmlns:xlink="http://www.w3.org/1999/xlink" width="13.75" height="11.25" viewBox="0 0 13.75 11.25">
	<path d="M12.9116 -0.47036C12.6518 -0.69766 12.2569 -0.671336 12.0296 -0.411565L3.71956 9.08567L0.441942 5.80806C0.197866 5.56398 -0.197866 5.56398 -0.441942 5.80806C-0.686017 6.05213 -0.686017 6.44787 -0.441942 6.69194L3.30806 10.4419Q3.32277 10.4567 3.33843 10.4704Q3.38476 10.5109 3.43811 10.5416Q3.49145 10.5723 3.54976 10.5921Q3.60807 10.6118 3.66911 10.6197Q3.73015 10.6277 3.79157 10.6236Q3.85299 10.6195 3.91244 10.6035Q3.97188 10.5875 4.02706 10.5602Q4.08224 10.5329 4.13103 10.4954Q4.17982 10.4579 4.22036 10.4116L12.9704 0.411565C13.1977 0.151795 13.1713 -0.243061 12.9116 -0.47036Z" fill-rule="evenodd" transform="matrix(1 0 0 1 0.625 0.625)" fill="rgb(182, 91, 79)"/>
</svg>
