<?xml version="1.0" encoding="utf-8" ?>
<svg xmlns="http://www.w3.org/2000/svg" xmlns:xlink="http://www.w3.org/1999/xlink" width="24" height="24" viewBox="0 0 24 24">
	<defs>
		<clipPath id="clipPath1746633078">
			<path d="M0 0L24 0L24 24L0 24L0 0Z" fill-rule="nonzero" transform="matrix(1 0 0 1 0 0)"/>
		</clipPath>
	</defs>
	<g clip-path="url(#clipPath1746633078)">
		<defs>
			<clipPath id="clipPath8259542844">
				<path d="M0 0L24 0L24 24L0 24L0 0Z" fill-rule="nonzero" transform="matrix(1 0 0 1 -0 -0)"/>
			</clipPath>
		</defs>
		<g clip-path="url(#clipPath8259542844)">
			<path d="M-0.75 0C-0.75 0.41421 -0.41421 0.75 0 0.75L21 0.75C21.4142 0.75 21.75 0.41421 21.75 0C21.75 -0.41421 21.4142 -0.75 21 -0.75L0 -0.75C-0.41421 -0.75 -0.75 -0.41421 -0.75 0ZM3 5.25C3 5.66421 3.33579 6 3.75 6L17.25 6C17.6642 6 18 5.66421 18 5.25C18 4.83579 17.6642 4.5 17.25 4.5L3.75 4.5C3.33579 4.5 3 4.83579 3 5.25ZM7.5 10.5C7.5 10.9142 7.83579 11.25 8.25 11.25L12.75 11.25C13.1642 11.25 13.5 10.9142 13.5 10.5C13.5 10.0858 13.1642 9.75 12.75 9.75L8.25 9.75C7.83579 9.75 7.5 10.0858 7.5 10.5Z" fill-rule="evenodd" transform="matrix(1 0 0 1 1.5 6.75)" fill="rgb(75, 85, 99)"/>
		</g>
	</g>
</svg>
