<?xml version="1.0" encoding="utf-8" ?>
<svg xmlns="http://www.w3.org/2000/svg" xmlns:xlink="http://www.w3.org/1999/xlink" width="32" height="32" viewBox="0 0 32 32">
	<path d="M-0 8C0 3.58172 3.58172 -0 8 -0L24 0C28.4183 0 32 3.58172 32 8L32 24C32 28.4183 28.4183 32 24 32L8 32C3.58172 32 -0 28.4183 -0 24L0 8ZM8 1C4.13401 1 1 4.13401 1 8L1 24C1 27.866 4.13401 31 8 31L24 31C27.866 31 31 27.866 31 24L31 8C31 4.13401 27.866 1 24 1L8 1Z" fill-rule="nonzero" transform="matrix(1 0 0 1 0 0)" fill="rgb(182, 91, 79)"/>
	<path d="M6.73228 16.3867L6.73228 17.6367L1.64244 17.6367L1.64244 16.3867L6.73228 16.3867Z" fill-rule="nonzero" transform="matrix(1 0 0 1 11.8125 0)" fill="rgb(182, 91, 79)"/>
</svg>
