<?xml version="1.0" encoding="utf-8" ?>
<svg xmlns="http://www.w3.org/2000/svg" xmlns:xlink="http://www.w3.org/1999/xlink" width="17.5" height="13.75" viewBox="0 0 17.5 13.75">
	<path d="M0 11.5625C-4.96705e-08 12.1666 0.213568 12.6822 0.640704 13.1093C1.06784 13.5364 1.58344 13.75 2.1875 13.75L15.3125 13.75C15.9166 13.75 16.4322 13.5364 16.8593 13.1093C17.2864 12.6822 17.5 12.1666 17.5 11.5625L17.5 5.54688L0 5.54688L0 11.5625ZM2.57812 8.59375C2.57812 8.27015 2.69254 7.99393 2.92136 7.76511C3.15018 7.53629 3.4264 7.42188 3.75 7.42188L5.625 7.42188C5.9486 7.42188 6.22482 7.53629 6.45364 7.76511C6.68246 7.99393 6.79688 8.27015 6.79688 8.59375L6.79688 9.375C6.79687 9.6986 6.68246 9.97482 6.45364 10.2036C6.22482 10.4325 5.9486 10.5469 5.625 10.5469L3.75 10.5469C3.4264 10.5469 3.15018 10.4325 2.92136 10.2036C2.69254 9.97482 2.57812 9.6986 2.57812 9.375L2.57812 8.59375ZM15.3125 0L2.1875 0C1.58344 0 1.06784 0.213568 0.640704 0.640704C0.213568 1.06784 0 1.58344 0 2.1875L0 3.20312L17.5 3.20312L17.5 2.1875C17.5 1.58344 17.2864 1.06784 16.8593 0.640704C16.4322 0.213568 15.9166 1.98682e-07 15.3125 0Z" fill-rule="nonzero" transform="matrix(1 0 0 1 0 0)" fill="rgb(156, 163, 175)"/>
</svg>
