<?xml version="1.0" encoding="utf-8" ?>
<svg xmlns="http://www.w3.org/2000/svg" xmlns:xlink="http://www.w3.org/1999/xlink" width="16.25" height="16.25" viewBox="0 0 16.25 16.25">
	<path d="M8.125 0C3.63789 0 0 3.63789 0 8.125C0 12.6121 3.63789 16.25 8.125 16.25C12.6121 16.25 16.25 12.6121 16.25 8.125C16.25 3.63789 12.6121 0 8.125 0ZM11.875 9.375L8.125 9.375C7.95241 9.375 7.8051 9.31398 7.68306 9.19194C7.56102 9.0699 7.5 8.92259 7.5 8.75L7.5 3.125C7.5 2.95241 7.56102 2.8051 7.68306 2.68306C7.8051 2.56102 7.95241 2.5 8.125 2.5C8.29759 2.5 8.4449 2.56102 8.56694 2.68306C8.68898 2.8051 8.75 2.95241 8.75 3.125L8.75 8.125L11.875 8.125C12.0476 8.125 12.1949 8.18602 12.3169 8.30806C12.439 8.4301 12.5 8.57741 12.5 8.75C12.5 8.92259 12.439 9.0699 12.3169 9.19194C12.1949 9.31398 12.0476 9.375 11.875 9.375Z" fill-rule="nonzero" transform="matrix(1 0 0 1 0 0)" fill="rgb(156, 163, 175)"/>
</svg>
