<?xml version="1.0" encoding="utf-8" ?>
<svg xmlns="http://www.w3.org/2000/svg" xmlns:xlink="http://www.w3.org/1999/xlink" width="20" height="12.8" viewBox="0 0 20 12.8">
	<path d="M19.5 8.8L19 8.8L19 6.0975C19 5.78 18.8406 5.475 18.5594 5.25L15.4375 2.7525C15.1562 2.5275 14.775 2.4 14.3781 2.4L13 2.4L13 1.2C13 0.5375 12.3281 0 11.5 0L1.5 0C0.671875 0 0 0.5375 0 1.2L0 9.2C0 9.8625 0.671875 10.4 1.5 10.4L2 10.4C2 11.725 3.34375 12.8 5 12.8C6.65625 12.8 8 11.725 8 10.4L12 10.4C12 11.725 13.3438 12.8 15 12.8C16.6562 12.8 18 11.725 18 10.4L19.5 10.4C19.775 10.4 20 10.22 20 10L20 9.2C20 8.98 19.775 8.8 19.5 8.8ZM5 11.6C4.17188 11.6 3.5 11.0625 3.5 10.4C3.5 9.7375 4.17188 9.2 5 9.2C5.82812 9.2 6.5 9.7375 6.5 10.4C6.5 11.0625 5.82812 11.6 5 11.6ZM15 11.6C14.1719 11.6 13.5 11.0625 13.5 10.4C13.5 9.7375 14.1719 9.2 15 9.2C15.8281 9.2 16.5 9.7375 16.5 10.4C16.5 11.0625 15.8281 11.6 15 11.6ZM17.5 6.4L13 6.4L13 3.6L14.3781 3.6L17.5 6.0975L17.5 6.4Z" fill-rule="nonzero" transform="matrix(1 0 0 1 0 2.44379e-05)" fill="rgb(182, 91, 79)"/>
</svg>
