<?xml version="1.0" encoding="utf-8" ?>
<svg xmlns="http://www.w3.org/2000/svg" xmlns:xlink="http://www.w3.org/1999/xlink" width="18.75" height="19.998" viewBox="0 0 18.75 19.998">
	<path d="M17.5977 3.26856L10.0977 0.143557C9.86695 0.0478524 9.62672 0 9.37695 0C9.12719 0 8.88695 0.0478524 8.65625 0.143557L1.15625 3.26856C0.457031 3.55762 0 4.24121 0 4.99903C0 12.7529 4.47266 18.1123 8.65234 19.8545C9.11328 20.0459 9.63281 20.0459 10.0938 19.8545C13.4414 18.46 18.75 13.6436 18.75 4.99903C18.75 4.24121 18.293 3.55762 17.5977 3.26856ZM9.37891 17.4326L9.375 2.54981L16.2461 5.41309C16.1172 11.3272 13.0391 15.6123 9.37891 17.4326Z" fill-rule="nonzero" transform="matrix(1 0 0 1 0 -2.57604e-06)" fill="rgb(182, 91, 79)"/>
</svg>
