<?xml version="1.0" encoding="utf-8" ?>
<svg xmlns="http://www.w3.org/2000/svg" xmlns:xlink="http://www.w3.org/1999/xlink" width="24" height="15.36" viewBox="0 0 24 15.36">
	<path d="M23.4 10.56L22.8 10.56L22.8 7.317C22.8 6.936 22.6088 6.57 22.2713 6.3L18.525 3.303C18.1875 3.033 17.73 2.88 17.2538 2.88L15.6 2.88L15.6 1.44C15.6 0.645 14.7937 0 13.8 0L1.8 0C0.80625 0 0 0.645 0 1.44L0 11.04C0 11.835 0.80625 12.48 1.8 12.48L2.4 12.48C2.4 14.07 4.0125 15.36 6 15.36C7.9875 15.36 9.6 14.07 9.6 12.48L14.4 12.48C14.4 14.07 16.0125 15.36 18 15.36C19.9875 15.36 21.6 14.07 21.6 12.48L23.4 12.48C23.73 12.48 24 12.264 24 12L24 11.04C24 10.776 23.73 10.56 23.4 10.56ZM6 13.92C5.00625 13.92 4.2 13.275 4.2 12.48C4.2 11.685 5.00625 11.04 6 11.04C6.99375 11.04 7.8 11.685 7.8 12.48C7.8 13.275 6.99375 13.92 6 13.92ZM18 13.92C17.0063 13.92 16.2 13.275 16.2 12.48C16.2 11.685 17.0063 11.04 18 11.04C18.9937 11.04 19.8 11.685 19.8 12.48C19.8 13.275 18.9937 13.92 18 13.92ZM21 7.68L15.6 7.68L15.6 4.32L17.2538 4.32L21 7.317L21 7.68Z" fill-rule="nonzero" transform="matrix(1 0 0 1 0 -2.44379e-05)" fill="rgb(209, 213, 219)"/>
</svg>
