<?xml version="1.0" encoding="utf-8" ?>
<svg xmlns="http://www.w3.org/2000/svg" xmlns:xlink="http://www.w3.org/1999/xlink" width="23.25" height="23.25" viewBox="0 0 23.25 23.25">
	<path d="M23.25 11.625C23.25 18.0453 18.0453 23.25 11.625 23.25C5.20467 23.25 0 18.0453 0 11.625C0 5.20467 5.20467 0 11.625 0C18.0453 0 23.25 5.20467 23.25 11.625ZM10.2803 17.7803L18.9053 9.15534C19.1982 8.86247 19.1982 8.38758 18.9053 8.0947L17.8447 7.03406C17.5518 6.74114 17.0769 6.74114 16.784 7.03406L9.75 14.068L6.46598 10.784C6.17311 10.4911 5.69822 10.4911 5.4053 10.784L4.34466 11.8447C4.05178 12.1375 4.05178 12.6124 4.34466 12.9053L9.21966 17.7803C9.51258 18.0732 9.98742 18.0732 10.2803 17.7803Z" fill-rule="nonzero" transform="matrix(1 0 0 1 0 0)" fill="rgb(182, 91, 79)"/>
</svg>
