<?xml version="1.0" encoding="utf-8" ?>
<svg xmlns="http://www.w3.org/2000/svg" xmlns:xlink="http://www.w3.org/1999/xlink" width="24" height="24" viewBox="0 0 24 24">
	<path d="M23.8828 8.65313L21.5109 1.5375C21.2062 0.61875 20.3484 0 19.3781 0L12.75 0L12.75 9L23.9391 9C23.9203 8.88281 23.9203 8.76562 23.8828 8.65313ZM11.25 0L4.62187 0C3.65156 0 2.79375 0.61875 2.48906 1.5375L0.117188 8.65313C0.0796875 8.76562 0.0796875 8.88281 0.0609375 9L11.25 9L11.25 0ZM0 10.5L0 21.75C0 22.9922 1.00781 24 2.25 24L21.75 24C22.9922 24 24 22.9922 24 21.75L24 10.5L0 10.5Z" fill-rule="nonzero" transform="matrix(1 0 0 1 0 0)" fill="rgb(182, 91, 79)"/>
</svg>
